<svg width="17" height="16" viewBox="0 0 17 16" fill="none" xmlns="http://www.w3.org/2000/svg">
<path d="M2.94238 15.4655L13.6522 4.75571V14.1136C13.6522 14.8614 14.2658 15.4751 15.0137 15.4751C15.1912 15.4753 15.3671 15.4404 15.5312 15.3725C15.6953 15.3047 15.8444 15.2051 15.97 15.0795C16.0956 14.9539 16.1952 14.8048 16.263 14.6407C16.3309 14.4766 16.3658 14.3008 16.3656 14.1232L16.3656 1.4862C16.3658 1.30862 16.3309 1.13274 16.263 0.968636C16.1952 0.804533 16.0956 0.655428 15.97 0.529856C15.8444 0.404283 15.6953 0.30471 15.5312 0.236834C15.3671 0.168959 15.1912 0.134115 15.0137 0.134297L2.37669 0.134296C2.19916 0.134296 2.02336 0.169266 1.85934 0.237205C1.69532 0.305145 1.54629 0.404726 1.42075 0.530262C1.29522 0.655799 1.19563 0.804831 1.1277 0.968852C1.05976 1.13287 1.02479 1.30867 1.02479 1.4862C1.02479 1.66374 1.05976 1.83953 1.1277 2.00356C1.19564 2.16758 1.29522 2.31661 1.42075 2.44215C1.54629 2.56768 1.69532 2.66726 1.85934 2.7352C2.02336 2.80314 2.19916 2.83811 2.3767 2.83811L11.7346 2.83811L1.02479 13.5479C0.497448 14.0752 0.497448 14.9382 1.02479 15.4655C1.55213 15.9928 2.41505 15.9928 2.94238 15.4655Z" fill="black"/>
</svg>
